<mxfile host="app.diagrams.net" modified="2023-08-07T11:03:27.620Z" agent="Mozilla/5.0 (Windows NT 10.0; Win64; x64) AppleWebKit/537.36 (KHTML, like Gecko) Chrome/115.0.0.0 Safari/537.36" version="21.6.6" etag="JbF2AePyfqjCUS_zuWDf" type="github">
  <diagram name="Page-1" id="Y9Uwpge3wWIsBYFIRdxM">
    <mxGraphModel>
      <root>
        <mxCell id="0" />
        <mxCell id="1" parent="0" />
      </root>
    </mxGraphModel>
  </diagram>
</mxfile>
